<svg data-v-423bf9ae="" xmlns="http://www.w3.org/2000/svg" viewBox="0 0 872.285500891651 60" class="font"><!----><!----><!----><g data-v-423bf9ae="" id="4ae6c694-610c-4b7d-94e9-01135030f4a5" fill="black" transform="matrix(4.811547979456921,0,0,4.811547979456921,1.6359410785748878,-46.479552747369894)"><path d="M3.91 19.32L3.91 19.32L3.91 19.32Q2.26 19.32 2.26 18.70L2.26 18.70L2.26 18.70Q2.26 18.53 2.54 18.48L2.54 18.48L2.54 18.48Q2.83 18.43 3.12 18.38L3.12 18.38L3.12 18.38Q3.40 18.32 3.40 18.14L3.40 18.14L3.40 10.58L1.40 10.58L1.40 10.58Q1.07 10.58 0.79 11.34L0.79 11.34L0.79 11.34Q0.51 12.10 0.19 12.10L0.19 12.10L0.19 12.10Q-0.34 12.10-0.34 11.47L-0.34 11.47L-0.34 11.47Q-0.34 10.60-0.04 10.15L-0.04 10.15L-0.04 10.15Q0.25 9.71 1.03 9.71L1.03 9.71L5.01 9.71L5.01 9.71Q7.18 9.71 7.70 9.73L7.70 9.73L7.70 9.73Q8.41 9.76 8.59 10.92L8.59 10.92L8.59 10.92Q8.63 11.20 8.63 11.51L8.63 11.51L8.63 11.51Q8.63 12.10 8.10 12.10L8.10 12.10L8.10 12.10Q7.75 12.10 7.52 11.34L7.52 11.34L7.52 11.34Q7.43 11.05 7.27 10.82L7.27 10.82L7.27 10.82Q7.10 10.58 6.89 10.58L6.89 10.58L4.89 10.58L4.89 18.14L4.89 18.14Q4.89 18.34 5.47 18.44L5.47 18.44L5.47 18.44Q6.06 18.54 6.06 18.70L6.06 18.70L6.06 18.70Q6.06 18.94 5.94 19.03L5.94 19.03L5.94 19.03Q5.82 19.12 5.74 19.17L5.74 19.17L5.74 19.17Q5.65 19.22 5.50 19.24L5.50 19.24L5.50 19.24Q5.35 19.27 5.24 19.29L5.24 19.29L5.24 19.29Q5.13 19.30 4.93 19.31L4.93 19.31L4.93 19.31Q4.73 19.32 4.62 19.32L4.62 19.32L4.62 19.32Q4.27 19.32 3.91 19.32ZM10.73 19.32L10.73 19.32L10.14 19.33L10.14 19.33Q9.24 19.33 9.03 19.05L9.03 19.05L9.03 19.05Q8.93 18.93 8.93 18.75L8.93 18.75L8.93 18.75Q8.93 18.58 9.07 18.51L9.07 18.51L9.07 18.51Q9.21 18.44 9.38 18.44L9.38 18.44L9.38 18.44Q9.54 18.43 9.68 18.33L9.68 18.33L9.68 18.33Q9.82 18.23 9.82 18.01L9.82 18.01L9.82 14.64L9.82 14.64Q9.82 14.03 9.67 13.88L9.67 13.88L9.67 13.88Q9.52 13.74 9.42 13.70L9.42 13.70L9.42 13.70Q9.32 13.66 9.11 13.60L9.11 13.60L9.11 13.60Q8.90 13.54 8.77 13.47L8.77 13.47L8.77 13.47Q8.63 13.41 8.63 13.29L8.63 13.29L8.63 13.29Q8.63 12.74 10.10 12.74L10.10 12.74L10.10 12.74Q10.73 12.74 10.89 12.96L10.89 12.96L10.89 12.96Q11.06 13.17 11.06 13.95L11.06 13.95L11.06 13.95Q11.29 13.36 11.83 13.03L11.83 13.03L11.83 13.03Q12.37 12.69 12.93 12.69L12.93 12.69L12.93 12.69Q13.49 12.69 13.86 12.94L13.86 12.94L13.86 12.94Q14.23 13.18 14.23 13.55L14.23 13.55L14.23 13.55Q14.23 13.92 13.99 14.15L13.99 14.15L13.99 14.15Q13.75 14.37 13.40 14.37L13.40 14.37L13.40 14.37Q13.05 14.37 12.80 14.18L12.80 14.18L12.80 14.18Q12.55 14 12.48 13.71L12.48 13.71L12.48 13.71Q12.30 13.68 12.18 13.68L12.18 13.68L12.18 13.68Q11.12 13.68 11.12 16.13L11.12 16.13L11.12 18.01L11.12 18.01Q11.12 18.41 11.56 18.43L11.56 18.43L11.56 18.43Q12.00 18.46 12.00 18.79L12.00 18.79L12.00 18.79Q12.00 19.16 11.59 19.25L11.59 19.25L11.59 19.25Q11.27 19.32 10.73 19.32ZM15.60 18.57L15.60 18.57L15.60 18.57Q14.65 17.64 14.65 16.11L14.65 16.11L14.65 16.11Q14.65 14.57 15.60 13.61L15.60 13.61L15.60 13.61Q16.56 12.65 18.03 12.65L18.03 12.65L18.03 12.65Q19.20 12.65 20.01 13.40L20.01 13.40L20.01 13.40Q20.81 14.16 20.81 15.30L20.81 15.30L20.81 15.30Q20.81 15.85 19.93 15.85L19.93 15.85L15.98 15.85L15.98 15.85Q15.99 16.96 16.69 17.72L16.69 17.72L16.69 17.72Q17.40 18.48 18.47 18.48L18.47 18.48L18.47 18.48Q19.18 18.48 19.85 18.06L19.85 18.06L19.85 18.06Q20.21 17.84 20.31 17.84L20.31 17.84L20.31 17.84Q20.41 17.84 20.53 17.94L20.53 17.94L20.53 17.94Q20.66 18.04 20.66 18.18L20.66 18.18L20.66 18.18Q20.66 18.56 20.18 18.88L20.18 18.88L20.18 18.88Q19.69 19.20 19.11 19.35L19.11 19.35L19.11 19.35Q18.53 19.50 18.09 19.50L18.09 19.50L18.09 19.50Q16.54 19.50 15.60 18.57ZM19.55 15.13L19.55 15.13L19.55 15.13Q19.54 14.35 19.14 13.86L19.14 13.86L19.14 13.86Q18.74 13.36 17.98 13.36L17.98 13.36L17.98 13.36Q17.22 13.36 16.65 13.91L16.65 13.91L16.65 13.91Q16.08 14.46 16.04 15.16L16.04 15.16L17.64 15.16L17.64 15.16Q18.71 15.16 19.55 15.13ZM24.69 18.70L24.69 18.70L24.69 18.70Q26.23 18.70 26.23 17.75L26.23 17.75L26.23 17.75Q26.23 17.04 24.84 16.64L24.84 16.64L24.84 16.64Q24.58 16.56 24.21 16.46L24.21 16.46L24.21 16.46Q23.52 16.28 23.28 16.18L23.28 16.18L23.28 16.18Q22.68 15.95 22.26 15.50L22.26 15.50L22.26 15.50Q21.85 15.06 21.85 14.45L21.85 14.45L21.85 14.45Q21.85 13.67 22.60 13.15L22.60 13.15L22.60 13.15Q23.34 12.63 24.40 12.63L24.40 12.63L24.40 12.63Q25.44 12.63 26.34 13.00L26.34 13.00L26.34 13.00Q26.78 13.19 27.06 13.51L27.06 13.51L27.06 13.51Q27.34 13.84 27.34 14.20L27.34 14.20L27.34 14.20Q27.34 14.55 27.05 14.77L27.05 14.77L27.05 14.77Q26.77 14.98 26.47 14.98L26.47 14.98L26.47 14.98Q26.16 14.98 26.06 14.92L26.06 14.92L26.06 14.92Q25.96 14.86 25.96 14.65L25.96 14.65L25.96 14.65Q25.96 13.33 24.56 13.33L24.56 13.33L24.56 13.33Q23.98 13.33 23.55 13.59L23.55 13.59L23.55 13.59Q23.12 13.84 23.12 14.25L23.12 14.25L23.12 14.25Q23.12 14.90 24.46 15.27L24.46 15.27L24.46 15.27Q24.67 15.33 24.97 15.40L24.97 15.40L24.97 15.40Q25.27 15.48 25.53 15.56L25.53 15.56L25.53 15.56Q25.78 15.64 26.06 15.75L26.06 15.75L26.06 15.75Q26.33 15.85 26.64 16.02L26.64 16.02L26.64 16.02Q26.95 16.19 27.14 16.39L27.14 16.39L27.14 16.39Q27.58 16.84 27.58 17.48L27.58 17.48L27.58 17.48Q27.58 18.12 27.15 18.59L27.15 18.59L27.15 18.59Q26.30 19.50 24.69 19.50L24.69 19.50L24.69 19.50Q23.65 19.50 22.76 19.15L22.76 19.15L22.76 19.15Q22.31 18.98 22.04 18.66L22.04 18.66L22.04 18.66Q21.77 18.35 21.77 17.99L21.77 17.99L21.77 17.99Q21.77 17.64 21.99 17.44L21.99 17.44L21.99 17.44Q22.22 17.25 22.50 17.25L22.50 17.25L22.50 17.25Q22.79 17.25 22.99 17.42L22.99 17.42L22.99 17.42Q23.19 17.60 23.19 17.87L23.19 17.87L23.19 17.87Q23.19 18.13 23.15 18.43L23.15 18.43L23.15 18.43Q23.87 18.70 24.69 18.70ZM31.72 18.70L31.72 18.70L31.72 18.70Q33.26 18.70 33.26 17.75L33.26 17.75L33.26 17.75Q33.26 17.04 31.87 16.64L31.87 16.64L31.87 16.64Q31.61 16.56 31.24 16.46L31.24 16.46L31.24 16.46Q30.55 16.28 30.31 16.18L30.31 16.18L30.31 16.18Q29.71 15.95 29.29 15.50L29.29 15.50L29.29 15.50Q28.88 15.06 28.88 14.45L28.88 14.45L28.88 14.45Q28.88 13.67 29.62 13.15L29.62 13.15L29.62 13.15Q30.37 12.63 31.43 12.63L31.43 12.63L31.43 12.63Q32.46 12.63 33.37 13.00L33.37 13.00L33.37 13.00Q33.81 13.19 34.09 13.51L34.09 13.51L34.09 13.51Q34.36 13.84 34.36 14.20L34.36 14.20L34.36 14.20Q34.36 14.55 34.08 14.77L34.08 14.77L34.08 14.77Q33.80 14.98 33.49 14.98L33.49 14.98L33.49 14.98Q33.19 14.98 33.09 14.92L33.09 14.92L33.09 14.92Q32.99 14.86 32.99 14.65L32.99 14.65L32.99 14.65Q32.99 13.33 31.59 13.33L31.59 13.33L31.59 13.33Q31.01 13.33 30.58 13.59L30.58 13.59L30.58 13.59Q30.15 13.84 30.15 14.25L30.15 14.25L30.15 14.25Q30.15 14.90 31.49 15.27L31.49 15.27L31.49 15.27Q31.70 15.33 32.00 15.40L32.00 15.40L32.00 15.40Q32.30 15.48 32.55 15.56L32.55 15.56L32.55 15.56Q32.81 15.64 33.08 15.75L33.08 15.75L33.08 15.75Q33.36 15.85 33.67 16.02L33.67 16.02L33.67 16.02Q33.97 16.19 34.17 16.39L34.17 16.39L34.17 16.39Q34.61 16.84 34.61 17.48L34.61 17.48L34.61 17.48Q34.61 18.12 34.18 18.59L34.18 18.59L34.18 18.59Q33.33 19.50 31.72 19.50L31.72 19.50L31.72 19.50Q30.67 19.50 29.79 19.15L29.79 19.15L29.79 19.15Q29.34 18.98 29.07 18.66L29.07 18.66L29.07 18.66Q28.79 18.35 28.79 17.99L28.79 17.99L28.79 17.99Q28.79 17.64 29.02 17.44L29.02 17.44L29.02 17.44Q29.24 17.25 29.53 17.25L29.53 17.25L29.53 17.25Q29.82 17.25 30.02 17.42L30.02 17.42L30.02 17.42Q30.22 17.60 30.22 17.87L30.22 17.87L30.22 17.87Q30.22 18.13 30.17 18.43L30.17 18.43L30.17 18.43Q30.90 18.70 31.72 18.70ZM46.74 16.88L46.74 16.88L46.74 16.88Q47.27 16.88 47.27 17.57L47.27 17.57L47.27 17.57Q47.27 18.25 46.70 18.80L46.70 18.80L46.70 18.80Q46.12 19.35 45.42 19.35L45.42 19.35L40.22 19.32L40.22 19.32Q39.28 19.32 39.02 19.27L39.02 19.27L39.02 19.27Q38.48 19.13 38.46 18.70L38.46 18.70L38.46 18.70Q38.46 18.46 38.92 18.40L38.92 18.40L38.92 18.40Q39.14 18.37 39.22 18.33L39.22 18.33L39.22 18.33Q39.48 18.22 39.48 17.85L39.48 17.85L39.48 11.18L39.48 11.18Q39.48 10.69 38.97 10.62L38.97 10.62L38.97 10.62Q38.88 10.61 38.79 10.60L38.79 10.60L38.79 10.60Q38.71 10.59 38.66 10.58L38.66 10.58L38.66 10.58Q38.60 10.57 38.58 10.55L38.58 10.55L38.58 10.55Q38.56 10.54 38.53 10.52L38.53 10.52L38.53 10.52Q38.50 10.49 38.49 10.46L38.49 10.46L38.49 10.46Q38.46 10.37 38.46 10.23L38.46 10.23L38.46 10.23Q38.46 10.08 38.56 9.96L38.56 9.96L38.56 9.96Q38.67 9.83 38.94 9.78L38.94 9.78L38.94 9.78Q39.28 9.72 40.22 9.72L40.22 9.72L45.92 9.72L45.92 9.72Q46.44 9.72 46.75 10.13L46.75 10.13L46.75 10.13Q47.07 10.54 47.07 11.13L47.07 11.13L47.07 11.13Q47.07 12.14 46.37 12.14L46.37 12.14L46.37 12.14Q45.93 12.14 45.76 11.86L45.76 11.86L45.76 11.86Q45.60 11.59 45.60 11.14L45.60 11.14L45.60 11.14Q45.60 10.69 45.60 10.53L45.60 10.53L40.98 10.53L40.98 13.94L43.91 13.94L43.91 13.94Q43.96 13.89 44.08 13.66L44.08 13.66L44.08 13.66Q44.39 13.02 44.54 13.02L44.54 13.02L44.54 13.02Q45.31 13.02 45.31 14.33L45.31 14.33L45.31 14.33Q45.31 14.90 45.15 15.30L45.15 15.30L45.15 15.30Q44.99 15.71 44.64 15.71L44.64 15.71L44.64 15.71Q44.45 15.71 44.33 15.57L44.33 15.57L44.33 15.57Q44.21 15.44 44.09 15.13L44.09 15.13L44.09 15.13Q43.96 14.82 43.91 14.72L43.91 14.72L40.98 14.72L40.98 18.42L45.35 18.42L45.35 18.42Q45.47 18.30 45.71 17.88L45.71 17.88L45.71 17.88Q45.95 17.47 46.20 17.18L46.20 17.18L46.20 17.18Q46.46 16.88 46.74 16.88ZM50.00 19.32L50.00 19.32L49.42 19.33L49.42 19.33Q48.52 19.33 48.31 19.05L48.31 19.05L48.31 19.05Q48.21 18.93 48.21 18.75L48.21 18.75L48.21 18.75Q48.21 18.58 48.35 18.51L48.35 18.51L48.35 18.51Q48.49 18.44 48.65 18.44L48.65 18.44L48.65 18.44Q48.82 18.43 48.96 18.33L48.96 18.33L48.96 18.33Q49.10 18.23 49.10 18.01L49.10 18.01L49.10 14.11L49.10 14.11Q49.10 13.90 48.94 13.80L48.94 13.80L48.94 13.80Q48.79 13.70 48.61 13.69L48.61 13.69L48.61 13.69Q48.12 13.66 48.12 13.38L48.12 13.38L48.12 13.38Q48.12 12.93 49.02 12.77L49.02 12.77L49.02 12.77Q49.23 12.73 49.40 12.73L49.40 12.73L49.40 12.73Q49.99 12.73 50.16 12.90L50.16 12.90L50.16 12.90Q50.33 13.08 50.33 13.68L50.33 13.68L50.33 13.68Q51.28 12.63 52.89 12.63L52.89 12.63L52.89 12.63Q53.45 12.63 53.98 12.96L53.98 12.96L53.98 12.96Q54.51 13.30 54.80 13.75L54.80 13.75L54.80 13.75Q55.97 12.62 57.39 12.62L57.39 12.62L57.39 12.62Q59.04 12.62 59.49 14.03L59.49 14.03L59.49 14.03Q59.73 14.79 59.73 16.10L59.73 16.10L59.73 18.01L59.73 18.01Q59.73 18.41 60.17 18.43L60.17 18.43L60.17 18.43Q60.61 18.46 60.61 18.79L60.61 18.79L60.61 18.79Q60.61 19.16 60.20 19.25L60.20 19.25L60.20 19.25Q59.89 19.32 59.34 19.32L59.34 19.32L58.75 19.33L58.75 19.33Q57.86 19.33 57.65 19.05L57.65 19.05L57.65 19.05Q57.55 18.93 57.55 18.75L57.55 18.75L57.55 18.75Q57.55 18.58 57.69 18.51L57.69 18.51L57.69 18.51Q57.83 18.44 57.99 18.44L57.99 18.44L57.99 18.44Q58.16 18.43 58.30 18.33L58.30 18.33L58.30 18.33Q58.43 18.23 58.43 18.01L58.43 18.01L58.43 15.91L58.43 15.91Q58.43 14.35 58.08 13.92L58.08 13.92L58.08 13.92Q57.76 13.50 57.15 13.50L57.15 13.50L57.15 13.50Q56.54 13.50 56.09 13.66L56.09 13.66L56.09 13.66Q55.64 13.82 55.36 14.16L55.36 14.16L55.36 14.16Q55.07 14.50 55.07 14.96L55.07 14.96L55.07 18.01L55.07 18.01Q55.07 18.41 55.51 18.43L55.51 18.43L55.51 18.43Q55.95 18.46 55.95 18.79L55.95 18.79L55.95 18.79Q55.95 19.16 55.54 19.25L55.54 19.25L55.54 19.25Q55.23 19.32 54.68 19.32L54.68 19.32L54.09 19.33L54.09 19.33Q53.20 19.33 52.99 19.05L52.99 19.05L52.99 19.05Q52.89 18.93 52.89 18.75L52.89 18.75L52.89 18.75Q52.89 18.58 53.03 18.51L53.03 18.51L53.03 18.51Q53.16 18.44 53.33 18.44L53.33 18.44L53.33 18.44Q53.50 18.43 53.63 18.33L53.63 18.33L53.63 18.33Q53.77 18.23 53.77 18.01L53.77 18.01L53.77 15.98L53.77 15.98Q53.77 14.69 53.55 14.21L53.55 14.21L53.55 14.21Q53.22 13.50 52.42 13.50L52.42 13.50L52.42 13.50Q51.44 13.50 50.92 14L50.92 14L50.92 14Q50.39 14.50 50.39 15.42L50.39 15.42L50.39 18.01L50.39 18.01Q50.39 18.41 50.84 18.43L50.84 18.43L50.84 18.43Q51.28 18.46 51.28 18.79L51.28 18.79L51.28 18.79Q51.28 19.16 50.87 19.25L50.87 19.25L50.87 19.25Q50.55 19.32 50.00 19.32ZM67.50 16.17L67.50 16.17L67.50 16.17Q67.50 14.59 66.58 13.87L66.58 13.87L66.58 13.87Q66.10 13.50 65.44 13.50L65.44 13.50L65.44 13.50Q63.48 13.50 63.48 15.71L63.48 15.71L63.48 17.96L63.48 17.96Q64.03 18.68 65.39 18.68L65.39 18.68L65.39 18.68Q66.37 18.68 66.93 17.97L66.93 17.97L66.93 17.97Q67.50 17.26 67.50 16.17ZM63.09 22.12L63.09 22.12L62.50 22.13L62.50 22.13Q61.61 22.13 61.39 21.85L61.39 21.85L61.39 21.85Q61.30 21.73 61.30 21.56L61.30 21.56L61.30 21.56Q61.30 21.38 61.43 21.31L61.43 21.31L61.43 21.31Q61.57 21.25 61.74 21.24L61.74 21.24L61.74 21.24Q61.91 21.23 62.04 21.13L62.04 21.13L62.04 21.13Q62.18 21.03 62.18 20.82L62.18 20.82L62.18 14.65L62.18 14.65Q62.18 14.16 62.11 13.97L62.11 13.97L62.11 13.97Q62.04 13.78 61.78 13.69L61.78 13.69L61.78 13.69Q61.76 13.67 61.51 13.62L61.51 13.62L61.51 13.62Q61.00 13.49 61.00 13.28L61.00 13.28L61.00 13.28Q61.00 12.74 62.37 12.74L62.37 12.74L62.37 12.74Q62.95 12.74 63.18 12.88L63.18 12.88L63.18 12.88Q63.42 13.02 63.42 13.47L63.42 13.47L63.42 13.47Q63.42 13.60 63.41 13.67L63.41 13.67L63.41 13.67Q63.94 13.16 64.47 12.89L64.47 12.89L64.47 12.89Q65.00 12.63 65.83 12.63L65.83 12.63L65.83 12.63Q66.66 12.63 67.38 13.09L67.38 13.09L67.38 13.09Q68.10 13.56 68.47 14.32L68.47 14.32L68.47 14.32Q68.84 15.08 68.84 16.02L68.84 16.02L68.84 16.02Q68.84 17.50 67.87 18.46L67.87 18.46L67.87 18.46Q66.90 19.43 65.40 19.43L65.40 19.43L65.40 19.43Q64.56 19.43 63.48 18.87L63.48 18.87L63.48 20.82L63.48 20.82Q63.48 21.21 63.92 21.24L63.92 21.24L63.92 21.24Q64.36 21.26 64.36 21.59L64.36 21.59L64.36 21.59Q64.36 21.96 63.94 22.05L63.94 22.05L63.94 22.05Q63.64 22.12 63.09 22.12ZM72.73 19.49L72.73 19.49L72.73 19.49Q71.19 19.49 70.25 18.52L70.25 18.52L70.25 18.52Q69.30 17.54 69.30 16.04L69.30 16.04L69.30 16.04Q69.30 15.05 69.80 14.27L69.80 14.27L69.80 14.27Q70.30 13.49 71.15 13.07L71.15 13.07L71.15 13.07Q72.00 12.66 73.05 12.66L73.05 12.66L73.05 12.66Q74.55 12.66 75.53 13.60L75.53 13.60L75.53 13.60Q76.51 14.53 76.51 16.02L76.51 16.02L76.51 16.02Q76.51 17.04 76.01 17.84L76.01 17.84L76.01 17.84Q75.50 18.63 74.65 19.06L74.65 19.06L74.65 19.06Q73.79 19.49 72.73 19.49ZM73.01 18.73L73.01 18.73L73.01 18.73Q74.03 18.73 74.60 18.04L74.60 18.04L74.60 18.04Q75.17 17.35 75.17 16.20L75.17 16.20L75.17 16.20Q75.17 15.05 74.52 14.22L74.52 14.22L74.52 14.22Q73.86 13.38 72.83 13.38L72.83 13.38L72.83 13.38Q71.80 13.38 71.25 14.09L71.25 14.09L71.25 14.09Q70.70 14.79 70.70 15.93L70.70 15.93L70.70 15.93Q70.70 17.08 71.35 17.90L71.35 17.90L71.35 17.90Q72.00 18.73 73.01 18.73ZM79.13 19.32L79.13 19.32L78.54 19.33L78.54 19.33Q77.64 19.33 77.43 19.05L77.43 19.05L77.43 19.05Q77.33 18.93 77.33 18.75L77.33 18.75L77.33 18.75Q77.33 18.58 77.47 18.51L77.47 18.51L77.47 18.51Q77.61 18.44 77.78 18.44L77.78 18.44L77.78 18.44Q77.94 18.43 78.08 18.33L78.08 18.33L78.08 18.33Q78.22 18.23 78.22 18.01L78.22 18.01L78.22 14.64L78.22 14.64Q78.22 14.03 78.07 13.88L78.07 13.88L78.07 13.88Q77.92 13.74 77.82 13.70L77.82 13.70L77.82 13.70Q77.72 13.66 77.51 13.60L77.51 13.60L77.51 13.60Q77.30 13.54 77.17 13.47L77.17 13.47L77.17 13.47Q77.03 13.41 77.03 13.29L77.03 13.29L77.03 13.29Q77.03 12.74 78.50 12.74L78.50 12.74L78.50 12.74Q79.13 12.74 79.29 12.96L79.29 12.96L79.29 12.96Q79.46 13.17 79.46 13.95L79.46 13.95L79.46 13.95Q79.69 13.36 80.23 13.03L80.23 13.03L80.23 13.03Q80.77 12.69 81.33 12.69L81.33 12.69L81.33 12.69Q81.89 12.69 82.26 12.94L82.26 12.94L82.26 12.94Q82.63 13.18 82.63 13.55L82.63 13.55L82.63 13.55Q82.63 13.92 82.39 14.15L82.39 14.15L82.39 14.15Q82.15 14.37 81.80 14.37L81.80 14.37L81.80 14.37Q81.45 14.37 81.20 14.18L81.20 14.18L81.20 14.18Q80.95 14 80.88 13.71L80.88 13.71L80.88 13.71Q80.70 13.68 80.58 13.68L80.58 13.68L80.58 13.68Q79.52 13.68 79.52 16.13L79.52 16.13L79.52 18.01L79.52 18.01Q79.52 18.41 79.96 18.43L79.96 18.43L79.96 18.43Q80.40 18.46 80.40 18.79L80.40 18.79L80.40 18.79Q80.40 19.16 79.99 19.25L79.99 19.25L79.99 19.25Q79.67 19.32 79.13 19.32ZM84.07 10.74L84.07 10.74L84.07 10.74Q84.07 10.44 84.36 10.18L84.36 10.18L84.36 10.18Q84.65 9.91 84.99 9.91L84.99 9.91L84.99 9.91Q85.34 9.91 85.66 10.12L85.66 10.12L85.66 10.12Q85.99 10.34 85.99 10.68L85.99 10.68L85.99 10.68Q85.99 11.03 85.72 11.27L85.72 11.27L85.72 11.27Q85.44 11.50 85.05 11.50L85.05 11.50L85.05 11.50Q84.65 11.50 84.36 11.29L84.36 11.29L84.36 11.29Q84.07 11.07 84.07 10.74ZM85.50 19.32L85.50 19.32L84.91 19.33L84.91 19.33Q84.01 19.33 83.80 19.05L83.80 19.05L83.80 19.05Q83.71 18.93 83.71 18.75L83.71 18.75L83.71 18.75Q83.71 18.58 83.84 18.51L83.84 18.51L83.84 18.51Q83.98 18.44 84.15 18.44L84.15 18.44L84.15 18.44Q84.31 18.43 84.45 18.33L84.45 18.33L84.45 18.33Q84.59 18.23 84.59 18.01L84.59 18.01L84.59 14.33L84.59 14.33Q84.59 13.71 84.10 13.67L84.10 13.67L84.10 13.67Q84.05 13.66 83.98 13.65L83.98 13.65L83.98 13.65Q83.90 13.64 83.87 13.64L83.87 13.64L83.87 13.64Q83.84 13.64 83.78 13.63L83.78 13.63L83.78 13.63Q83.73 13.62 83.71 13.60L83.71 13.60L83.71 13.60Q83.69 13.59 83.66 13.57L83.66 13.57L83.66 13.57Q83.61 13.54 83.61 13.37L83.61 13.37L83.61 13.37Q83.61 13.21 83.82 13.04L83.82 13.04L83.82 13.04Q84.21 12.73 84.85 12.73L84.85 12.73L84.85 12.73Q85.46 12.73 85.56 12.78L85.56 12.78L85.56 12.78Q85.67 12.82 85.74 12.88L85.74 12.88L85.74 12.88Q85.89 12.97 85.89 13.24L85.89 13.24L85.89 18.01L85.89 18.01Q85.89 18.41 86.33 18.43L86.33 18.43L86.33 18.43Q86.77 18.46 86.77 18.79L86.77 18.79L86.77 18.79Q86.77 19.16 86.36 19.25L86.36 19.25L86.36 19.25Q86.04 19.32 85.50 19.32ZM89.71 13.59L89.71 16.36L89.71 16.36Q89.71 17.29 89.86 17.68L89.86 17.68L89.86 17.68Q90.01 18.07 90.20 18.23L90.20 18.23L90.20 18.23Q90.60 18.57 91.52 18.57L91.52 18.57L91.52 18.57Q92.45 18.57 92.88 18.10L92.88 18.10L92.88 18.10Q93.31 17.62 93.31 16.51L93.31 16.51L93.31 14.20L93.31 14.20Q93.31 13.69 92.81 13.66L92.81 13.66L92.81 13.66Q92.42 13.64 92.37 13.57L92.37 13.57L92.37 13.57Q92.33 13.51 92.33 13.43L92.33 13.43L92.33 13.43Q92.33 13.08 92.73 12.91L92.73 12.91L92.73 12.91Q93.13 12.73 93.68 12.73L93.68 12.73L93.68 12.73Q94.23 12.73 94.43 12.88L94.43 12.88L94.43 12.88Q94.62 13.03 94.62 13.59L94.62 13.59L94.63 17.96L94.63 17.96Q94.63 18.43 95.12 18.46L95.12 18.46L95.12 18.46Q95.47 18.48 95.55 18.54L95.55 18.54L95.55 18.54Q95.62 18.59 95.62 18.77L95.62 18.77L95.62 18.77Q95.62 18.96 95.40 19.12L95.40 19.12L95.40 19.12Q94.99 19.39 94.35 19.39L94.35 19.39L94.35 19.39Q93.70 19.39 93.55 19.20L93.55 19.20L93.55 19.20Q93.39 19.00 93.39 18.30L93.39 18.30L93.39 18.30Q92.57 19.50 90.86 19.50L90.86 19.50L90.86 19.50Q89.52 19.50 88.95 18.78L88.95 18.78L88.95 18.78Q88.39 18.05 88.39 16.54L88.39 16.54L88.39 14.20L88.39 14.20Q88.39 13.69 87.90 13.66L87.90 13.66L87.90 13.66Q87.50 13.64 87.46 13.57L87.46 13.57L87.46 13.57Q87.42 13.51 87.42 13.43L87.42 13.43L87.42 13.43Q87.42 13.08 87.81 12.91L87.81 12.91L87.81 12.91Q88.21 12.73 88.76 12.73L88.76 12.73L88.76 12.73Q89.31 12.73 89.51 12.88L89.51 12.88L89.51 12.88Q89.71 13.03 89.71 13.59L89.71 13.59ZM98.40 19.32L98.40 19.32L97.81 19.33L97.81 19.33Q96.91 19.33 96.70 19.05L96.70 19.05L96.70 19.05Q96.61 18.93 96.61 18.75L96.61 18.75L96.61 18.75Q96.61 18.58 96.74 18.51L96.74 18.51L96.74 18.51Q96.88 18.44 97.05 18.44L97.05 18.44L97.05 18.44Q97.21 18.43 97.35 18.33L97.35 18.33L97.35 18.33Q97.49 18.23 97.49 18.01L97.49 18.01L97.49 14.11L97.49 14.11Q97.49 13.90 97.33 13.80L97.33 13.80L97.33 13.80Q97.18 13.70 97.00 13.69L97.00 13.69L97.00 13.69Q96.51 13.66 96.51 13.38L96.51 13.38L96.51 13.38Q96.51 12.93 97.41 12.77L97.41 12.77L97.41 12.77Q97.62 12.73 97.79 12.73L97.79 12.73L97.79 12.73Q98.38 12.73 98.55 12.90L98.55 12.90L98.55 12.90Q98.72 13.08 98.72 13.68L98.72 13.68L98.72 13.68Q99.67 12.63 101.28 12.63L101.28 12.63L101.28 12.63Q101.84 12.63 102.37 12.96L102.37 12.96L102.37 12.96Q102.90 13.30 103.20 13.75L103.20 13.75L103.20 13.75Q104.36 12.62 105.78 12.62L105.78 12.62L105.78 12.62Q107.43 12.62 107.88 14.03L107.88 14.03L107.88 14.03Q108.12 14.79 108.12 16.10L108.12 16.10L108.12 18.01L108.12 18.01Q108.12 18.41 108.56 18.43L108.56 18.43L108.56 18.43Q109.01 18.46 109.01 18.79L109.01 18.79L109.01 18.79Q109.01 19.16 108.60 19.25L108.60 19.25L108.60 19.25Q108.28 19.32 107.73 19.32L107.73 19.32L107.15 19.33L107.15 19.33Q106.25 19.33 106.04 19.05L106.04 19.05L106.04 19.05Q105.94 18.93 105.94 18.75L105.94 18.75L105.94 18.75Q105.94 18.58 106.08 18.51L106.08 18.51L106.08 18.51Q106.22 18.44 106.38 18.44L106.38 18.44L106.38 18.44Q106.55 18.43 106.69 18.33L106.69 18.33L106.69 18.33Q106.83 18.23 106.83 18.01L106.83 18.01L106.83 15.91L106.83 15.91Q106.83 14.35 106.48 13.92L106.48 13.92L106.48 13.92Q106.15 13.50 105.54 13.50L105.54 13.50L105.54 13.50Q104.93 13.50 104.48 13.66L104.48 13.66L104.48 13.66Q104.04 13.82 103.75 14.16L103.75 14.16L103.75 14.16Q103.46 14.50 103.46 14.96L103.46 14.96L103.46 18.01L103.46 18.01Q103.46 18.41 103.90 18.43L103.90 18.43L103.90 18.43Q104.34 18.46 104.34 18.79L104.34 18.79L104.34 18.79Q104.34 19.16 103.93 19.25L103.93 19.25L103.93 19.25Q103.62 19.32 103.07 19.32L103.07 19.32L102.48 19.33L102.48 19.33Q101.59 19.33 101.38 19.05L101.38 19.05L101.38 19.05Q101.28 18.93 101.28 18.75L101.28 18.75L101.28 18.75Q101.28 18.58 101.42 18.51L101.42 18.51L101.42 18.51Q101.55 18.44 101.72 18.44L101.72 18.44L101.72 18.44Q101.89 18.43 102.03 18.33L102.03 18.33L102.03 18.33Q102.16 18.23 102.16 18.01L102.16 18.01L102.16 15.98L102.16 15.98Q102.16 14.69 101.94 14.21L101.94 14.21L101.94 14.21Q101.61 13.50 100.82 13.50L100.82 13.50L100.82 13.50Q99.83 13.50 99.31 14L99.31 14L99.31 14Q98.79 14.50 98.79 15.42L98.79 15.42L98.79 18.01L98.79 18.01Q98.79 18.41 99.23 18.43L99.23 18.43L99.23 18.43Q99.67 18.46 99.67 18.79L99.67 18.79L99.67 18.79Q99.67 19.16 99.26 19.25L99.26 19.25L99.26 19.25Q98.94 19.32 98.40 19.32ZM120.31 16.67L120.31 16.67L120.31 16.67Q120.31 16.24 120.17 15.91L120.17 15.91L120.17 15.91Q120.04 15.59 119.78 15.37L119.78 15.37L119.78 15.37Q119.51 15.16 119.20 15.02L119.20 15.02L119.20 15.02Q118.88 14.88 118.44 14.81L118.44 14.81L118.44 14.81Q117.64 14.69 116.65 14.69L116.65 14.69L115.10 14.69L115.10 17.34L115.10 17.34Q115.10 18.01 115.33 18.28L115.33 18.28L115.33 18.28Q115.56 18.55 116.18 18.55L116.18 18.55L117.32 18.55L117.32 18.55Q119.09 18.55 119.77 17.98L119.77 17.98L119.77 17.98Q120.31 17.53 120.31 16.67ZM112.61 10.46L112.61 10.46L112.61 10.46Q112.60 10.43 112.59 10.39L112.59 10.39L112.59 10.39Q112.58 10.34 112.58 10.21L112.58 10.21L112.58 10.21Q112.58 10.08 112.69 9.96L112.69 9.96L112.69 9.96Q112.79 9.83 113.06 9.78L113.06 9.78L113.06 9.78Q113.40 9.72 114.34 9.72L114.34 9.72L116.99 9.72L116.99 9.72Q121.12 9.72 121.12 12.10L121.12 12.10L121.12 12.10Q121.12 12.95 120.56 13.44L120.56 13.44L120.56 13.44Q120.10 13.85 119.35 14.17L119.35 14.17L119.35 14.17Q121.82 14.95 121.82 16.73L121.82 16.73L121.82 16.73Q121.82 17.46 121.46 17.98L121.46 17.98L121.46 17.98Q121.10 18.50 120.46 18.79L120.46 18.79L120.46 18.79Q119.25 19.33 117.39 19.33L117.39 19.33L114.34 19.32L114.34 19.32Q113.40 19.32 113.14 19.27L113.14 19.27L113.14 19.27Q112.60 19.13 112.58 18.70L112.58 18.70L112.58 18.70Q112.58 18.46 113.05 18.40L113.05 18.40L113.05 18.40Q113.26 18.37 113.34 18.33L113.34 18.33L113.34 18.33Q113.61 18.22 113.61 17.85L113.61 17.85L113.61 11.18L113.61 11.18Q113.61 10.69 113.09 10.62L113.09 10.62L113.09 10.62Q113.00 10.61 112.92 10.60L112.92 10.60L112.92 10.60Q112.83 10.59 112.78 10.58L112.78 10.58L112.78 10.58Q112.72 10.57 112.70 10.55L112.70 10.55L112.70 10.55Q112.68 10.54 112.65 10.52L112.65 10.52L112.65 10.52Q112.62 10.49 112.61 10.46ZM115.10 13.90L117.38 13.90L117.38 13.90Q119.03 13.90 119.55 13.07L119.55 13.07L119.55 13.07Q119.74 12.76 119.74 12.34L119.74 12.34L119.74 12.34Q119.74 11.93 119.60 11.62L119.60 11.62L119.60 11.62Q119.46 11.32 119.20 11.13L119.20 11.13L119.20 11.13Q118.93 10.94 118.63 10.81L118.63 10.81L118.63 10.81Q118.32 10.69 117.89 10.64L117.89 10.64L117.89 10.64Q117.16 10.53 116.41 10.53L116.41 10.53L116.41 10.53Q115.66 10.53 115.38 10.74L115.38 10.74L115.38 10.74Q115.10 10.95 115.10 11.52L115.10 11.52L115.10 13.90ZM123.15 18.57L123.15 18.57L123.15 18.57Q122.21 17.64 122.21 16.11L122.21 16.11L122.21 16.11Q122.21 14.57 123.16 13.61L123.16 13.61L123.16 13.61Q124.11 12.65 125.59 12.65L125.59 12.65L125.59 12.65Q126.76 12.65 127.56 13.40L127.56 13.40L127.56 13.40Q128.37 14.16 128.37 15.30L128.37 15.30L128.37 15.30Q128.37 15.85 127.49 15.85L127.49 15.85L123.53 15.85L123.53 15.85Q123.55 16.96 124.25 17.72L124.25 17.72L124.25 17.72Q124.95 18.48 126.03 18.48L126.03 18.48L126.03 18.48Q126.74 18.48 127.41 18.06L127.41 18.06L127.41 18.06Q127.76 17.84 127.86 17.84L127.86 17.84L127.86 17.84Q127.96 17.84 128.09 17.94L128.09 17.94L128.09 17.94Q128.21 18.04 128.21 18.18L128.21 18.18L128.21 18.18Q128.21 18.56 127.73 18.88L127.73 18.88L127.73 18.88Q127.25 19.20 126.67 19.35L126.67 19.35L126.67 19.35Q126.09 19.50 125.65 19.50L125.65 19.50L125.65 19.50Q124.10 19.50 123.15 18.57ZM127.11 15.13L127.11 15.13L127.11 15.13Q127.09 14.35 126.70 13.86L126.70 13.86L126.70 13.86Q126.30 13.36 125.54 13.36L125.54 13.36L125.54 13.36Q124.78 13.36 124.21 13.91L124.21 13.91L124.21 13.91Q123.63 14.46 123.60 15.16L123.60 15.16L125.20 15.16L125.20 15.16Q126.27 15.16 127.11 15.13ZM130.41 14.98L130.41 14.98L130.41 14.98Q130.16 14.98 129.84 14.78L129.84 14.78L129.84 14.78Q129.52 14.58 129.52 14.26L129.52 14.26L129.52 14.26Q129.52 13.93 129.71 13.64L129.71 13.64L129.71 13.64Q129.89 13.36 130.18 13.18L130.18 13.18L130.18 13.18Q130.48 13.00 130.87 12.87L130.87 12.87L130.87 12.87Q131.58 12.65 132.40 12.65L132.40 12.65L132.40 12.65Q133.78 12.65 134.40 13.26L134.40 13.26L134.40 13.26Q135.03 13.87 135.03 15.28L135.03 15.28L135.02 17.29L135.02 17.29Q135.02 18.03 135.21 18.21L135.21 18.21L135.21 18.21Q135.26 18.26 135.51 18.33L135.51 18.33L135.51 18.33Q136.21 18.55 136.21 18.67L136.21 18.67L136.21 18.67Q136.21 19.39 134.74 19.39L134.74 19.39L134.74 19.39Q134.18 19.39 134.02 19.14L134.02 19.14L134.02 19.14Q133.85 18.89 133.83 18.25L133.83 18.25L133.83 18.25Q133.53 18.80 132.90 19.14L132.90 19.14L132.90 19.14Q132.27 19.48 131.55 19.48L131.55 19.48L131.55 19.48Q130.83 19.48 130.33 19.30L130.33 19.30L130.33 19.30Q129.83 19.11 129.52 18.70L129.52 18.70L129.52 18.70Q129.21 18.29 129.21 17.81L129.21 17.81L129.21 17.81Q129.21 17.33 129.32 17.04L129.32 17.04L129.32 17.04Q129.43 16.75 129.60 16.55L129.60 16.55L129.60 16.55Q129.76 16.35 130.04 16.19L130.04 16.19L130.04 16.19Q130.33 16.04 130.57 15.94L130.57 15.94L130.57 15.94Q130.82 15.85 131.21 15.78L131.21 15.78L131.21 15.78Q131.78 15.67 132.17 15.62L132.17 15.62L132.17 15.62Q132.56 15.58 132.58 15.57L132.58 15.57L132.58 15.57Q132.62 15.57 133.04 15.52L133.04 15.52L133.04 15.52Q133.47 15.48 133.72 15.34L133.72 15.34L133.72 15.34Q133.72 14.04 133.37 13.64L133.37 13.64L133.37 13.64Q133.06 13.30 132.36 13.30L132.36 13.30L132.36 13.30Q131.65 13.30 131.30 13.66L131.30 13.66L131.30 13.66Q130.95 14.02 130.95 14.80L130.95 14.80L130.96 14.95L130.96 14.95Q130.67 14.98 130.41 14.98ZM133.72 15.96L133.72 15.96L133.72 15.96Q133.25 16.13 132.67 16.19L132.67 16.19L132.67 16.19Q132.08 16.26 131.75 16.34L131.75 16.34L131.75 16.34Q131.41 16.43 131.19 16.56L131.19 16.56L131.19 16.56Q130.67 16.86 130.67 17.60L130.67 17.60L130.67 17.60Q130.67 18.77 132.04 18.77L132.04 18.77L132.04 18.77Q133.22 18.77 133.53 17.64L133.53 17.64L133.53 17.64Q133.72 17.00 133.72 15.96ZM138.82 13.59L138.82 16.36L138.82 16.36Q138.82 17.29 138.97 17.68L138.97 17.68L138.97 17.68Q139.12 18.07 139.31 18.23L139.31 18.23L139.31 18.23Q139.71 18.57 140.63 18.57L140.63 18.57L140.63 18.57Q141.56 18.57 141.99 18.10L141.99 18.10L141.99 18.10Q142.42 17.62 142.42 16.51L142.42 16.51L142.42 14.20L142.42 14.20Q142.42 13.69 141.92 13.66L141.92 13.66L141.92 13.66Q141.52 13.64 141.48 13.57L141.48 13.57L141.48 13.57Q141.44 13.51 141.44 13.43L141.44 13.43L141.44 13.43Q141.44 13.08 141.84 12.91L141.84 12.91L141.84 12.91Q142.24 12.73 142.79 12.73L142.79 12.73L142.79 12.73Q143.34 12.73 143.54 12.88L143.54 12.88L143.54 12.88Q143.73 13.03 143.73 13.59L143.73 13.59L143.74 17.96L143.74 17.96Q143.74 18.43 144.23 18.46L144.23 18.46L144.23 18.46Q144.58 18.48 144.66 18.54L144.66 18.54L144.66 18.54Q144.73 18.59 144.73 18.77L144.73 18.77L144.73 18.77Q144.73 18.96 144.50 19.12L144.50 19.12L144.50 19.12Q144.10 19.39 143.46 19.39L143.46 19.39L143.46 19.39Q142.81 19.39 142.66 19.20L142.66 19.20L142.66 19.20Q142.50 19.00 142.50 18.30L142.50 18.30L142.50 18.30Q141.67 19.50 139.97 19.50L139.97 19.50L139.97 19.50Q138.63 19.50 138.06 18.78L138.06 18.78L138.06 18.78Q137.50 18.05 137.50 16.54L137.50 16.54L137.50 14.20L137.50 14.20Q137.50 13.69 137.01 13.66L137.01 13.66L137.01 13.66Q136.61 13.64 136.57 13.57L136.57 13.57L136.57 13.57Q136.53 13.51 136.53 13.43L136.53 13.43L136.53 13.43Q136.53 13.08 136.92 12.91L136.92 12.91L136.92 12.91Q137.32 12.73 137.87 12.73L137.87 12.73L137.87 12.73Q138.42 12.73 138.62 12.88L138.62 12.88L138.62 12.88Q138.82 13.03 138.82 13.59L138.82 13.59ZM146.08 17.48L146.08 13.66L145.67 13.67L145.67 13.67Q145.41 13.67 145.30 13.62L145.30 13.62L145.30 13.62Q145.18 13.57 145.18 13.42L145.18 13.42L145.18 13.42Q145.18 13.26 145.31 13.14L145.31 13.14L145.31 13.14Q145.45 13.01 145.62 12.94L145.62 12.94L145.62 12.94Q146.09 12.75 146.18 12.62L146.18 12.62L146.18 12.62Q146.28 12.48 146.46 12.03L146.46 12.03L146.46 12.03Q146.92 10.90 147.23 10.90L147.23 10.90L147.23 10.90Q147.38 10.90 147.41 11.24L147.41 11.24L147.41 11.24Q147.43 11.58 147.43 11.76L147.43 11.76L147.43 11.76Q147.44 11.94 147.43 12.29L147.43 12.29L147.43 12.29Q147.42 12.64 147.42 12.78L147.42 12.78L149.05 12.78L149.05 12.78Q149.29 12.78 149.45 12.90L149.45 12.90L149.45 12.90Q149.62 13.02 149.62 13.22L149.62 13.22L149.62 13.22Q149.62 13.42 149.46 13.53L149.46 13.53L149.46 13.53Q149.30 13.64 149.06 13.64L149.06 13.64L147.42 13.64L147.42 17.13L147.42 17.13Q147.42 18.61 148.16 18.61L148.16 18.61L148.16 18.61Q148.37 18.61 148.77 18.49L148.77 18.49L148.77 18.49Q149.17 18.36 149.30 18.36L149.30 18.36L149.30 18.36Q149.58 18.36 149.58 18.68L149.58 18.68L149.58 18.68Q149.58 18.94 148.92 19.19L148.92 19.19L148.92 19.19Q148.26 19.44 147.56 19.44L147.56 19.44L147.56 19.44Q146.87 19.44 146.48 18.90L146.48 18.90L146.48 18.90Q146.08 18.36 146.08 17.48L146.08 17.48ZM154.23 17.92L154.23 17.92L154.23 17.92Q155.96 14.26 155.96 14.05L155.96 14.05L155.96 14.05Q155.96 13.85 155.80 13.77L155.80 13.77L155.80 13.77Q155.65 13.69 155.48 13.67L155.48 13.67L155.48 13.67Q155.00 13.62 155.00 13.39L155.00 13.39L155.00 13.39Q155.00 12.77 156.47 12.77L156.47 12.77L156.74 12.77L156.74 12.77Q157.40 12.77 157.68 12.98L157.68 12.98L157.68 12.98Q157.96 13.19 157.96 13.38L157.96 13.38L157.96 13.38Q157.96 13.56 157.76 13.60L157.76 13.60L157.76 13.60Q157.34 13.68 157.13 13.84L157.13 13.84L157.13 13.84Q156.92 14 156.72 14.43L156.72 14.43L156.72 14.43Q156.52 14.86 156.06 15.90L156.06 15.90L156.06 15.90Q155.59 16.94 155.28 17.60L155.28 17.60L153.81 20.62L153.81 20.62Q153.58 21.11 153.21 21.43L153.21 21.43L153.21 21.43Q152.84 21.76 152.35 21.76L152.35 21.76L152.35 21.76Q151.85 21.76 151.47 21.51L151.47 21.51L151.47 21.51Q151.10 21.26 151.10 20.87L151.10 20.87L151.10 20.87Q151.10 20.47 151.34 20.24L151.34 20.24L151.34 20.24Q151.57 20.02 151.93 20.02L151.93 20.02L151.93 20.02Q152.28 20.02 152.57 20.19L152.57 20.19L152.57 20.19Q152.85 20.37 152.87 20.63L152.87 20.63L152.87 20.63Q153.41 19.76 153.60 19.28L153.60 19.28L153.60 19.28Q153.31 18.48 152.29 16.50L152.29 16.50L152.29 16.50Q151.27 14.51 151.16 14.28L151.16 14.28L151.16 14.28Q151.05 14.05 150.97 13.97L150.97 13.97L150.97 13.97Q150.89 13.88 150.77 13.82L150.77 13.82L150.77 13.82Q150.64 13.75 150.56 13.73L150.56 13.73L150.56 13.73Q150.48 13.70 150.29 13.65L150.29 13.65L150.29 13.65Q150.11 13.60 150.00 13.57L150.00 13.57L150.00 13.57Q149.88 13.54 149.88 13.36L149.88 13.36L149.88 13.36Q149.88 12.77 151.50 12.77L151.50 12.77L151.50 12.77Q152.49 12.77 152.77 12.87L152.77 12.87L152.77 12.87Q153.31 13.06 153.31 13.38L153.31 13.38L153.31 13.38Q153.31 13.59 152.90 13.67L152.90 13.67L152.90 13.67Q152.50 13.75 152.50 13.97L152.50 13.97L152.50 13.97Q152.50 13.99 152.74 14.62L152.74 14.62L152.74 14.62Q153.52 16.65 154.23 17.92ZM162.23 14.29L162.23 14.29L162.23 14.29Q162.23 15.21 162.57 15.99L162.57 15.99L162.57 15.99Q162.90 16.76 163.49 17.29L163.49 17.29L163.49 17.29Q164.73 18.42 166.68 18.42L166.68 18.42L166.68 18.42Q168.63 18.42 170.11 16.94L170.11 16.94L170.11 16.94Q170.28 16.78 170.40 16.78L170.40 16.78L170.40 16.78Q170.53 16.78 170.64 16.87L170.64 16.87L170.64 16.87Q170.75 16.97 170.75 17.10L170.75 17.10L170.75 17.10Q170.75 17.24 170.68 17.41L170.68 17.41L170.69 17.41L170.69 17.41Q170.17 18.31 168.97 18.91L168.97 18.91L168.97 18.91Q167.77 19.51 166.52 19.51L166.52 19.51L166.52 19.51Q165.26 19.51 164.23 19.19L164.23 19.19L164.23 19.19Q163.19 18.87 162.40 18.27L162.40 18.27L162.40 18.27Q161.60 17.68 161.13 16.75L161.13 16.75L161.13 16.75Q160.66 15.83 160.66 14.67L160.66 14.67L160.66 14.67Q160.66 13.51 161.10 12.55L161.10 12.55L161.10 12.55Q161.55 11.59 162.33 10.96L162.33 10.96L162.33 10.96Q163.93 9.66 166.41 9.66L166.41 9.66L166.41 9.66Q167.73 9.66 168.90 10.07L168.90 10.07L168.90 10.07Q169.50 10.28 169.88 10.67L169.88 10.67L169.88 10.67Q170.26 11.07 170.26 11.57L170.26 11.57L170.26 11.57Q170.26 12.08 169.95 12.33L169.95 12.33L169.95 12.33Q169.63 12.57 169.21 12.57L169.21 12.57L169.21 12.57Q168.79 12.57 168.59 12.50L168.59 12.50L168.59 12.50Q168.51 11.44 167.97 10.92L167.97 10.92L167.97 10.92Q167.43 10.40 166.35 10.40L166.35 10.40L166.35 10.40Q164.49 10.40 163.36 11.47L163.36 11.47L163.36 11.47Q162.23 12.55 162.23 14.29ZM174.36 19.49L174.36 19.49L174.36 19.49Q172.82 19.49 171.88 18.52L171.88 18.52L171.88 18.52Q170.93 17.54 170.93 16.04L170.93 16.04L170.93 16.04Q170.93 15.05 171.43 14.27L171.43 14.27L171.43 14.27Q171.93 13.49 172.78 13.07L172.78 13.07L172.78 13.07Q173.63 12.66 174.68 12.66L174.68 12.66L174.68 12.66Q176.18 12.66 177.16 13.60L177.16 13.60L177.16 13.60Q178.14 14.53 178.14 16.02L178.14 16.02L178.14 16.02Q178.14 17.04 177.64 17.84L177.64 17.84L177.64 17.84Q177.13 18.63 176.28 19.06L176.28 19.06L176.28 19.06Q175.42 19.49 174.36 19.49ZM174.64 18.73L174.64 18.73L174.64 18.73Q175.66 18.73 176.23 18.04L176.23 18.04L176.23 18.04Q176.80 17.35 176.80 16.20L176.80 16.20L176.80 16.20Q176.80 15.05 176.15 14.22L176.15 14.22L176.15 14.22Q175.49 13.38 174.46 13.38L174.46 13.38L174.46 13.38Q173.43 13.38 172.88 14.09L172.88 14.09L172.88 14.09Q172.33 14.79 172.33 15.93L172.33 15.93L172.33 15.93Q172.33 17.08 172.98 17.90L172.98 17.90L172.98 17.90Q173.63 18.73 174.64 18.73ZM179.89 19.32L179.89 19.32L179.89 19.32Q179.61 19.32 179.32 19.10L179.32 19.10L179.32 19.10Q179.03 18.88 179.03 18.54L179.03 18.54L179.03 18.54Q179.03 18.19 179.34 17.96L179.34 17.96L179.34 17.96Q179.66 17.73 179.98 17.73L179.98 17.73L179.98 17.73Q180.30 17.73 180.62 17.94L180.62 17.94L180.62 17.94Q180.95 18.15 180.95 18.44L180.95 18.44L180.95 18.44Q180.95 19.06 180.33 19.26L180.33 19.26L180.33 19.26Q180.17 19.32 179.89 19.32Z"></path></g><!----><!----></svg>